# Blender v3.1.2 OBJ File: 'LAAS_indoor_window.blend'
# www.blender.org
mtllib LAAS_indoor_test.mtl
o Floor_Cube.001
v -3.000000 -1.750000 0.000000
v -3.000000 -1.750000 0.150000
v -3.000000 1.750000 0.000000
v -3.000000 1.750000 0.150000
v 3.000000 -1.750000 0.000000
v 3.000000 -1.750000 0.150000
v 3.000000 1.750000 0.000000
v 3.000000 1.750000 0.150000
vt 0.625000 0.000000
vt 0.375000 0.250000
vt 0.375000 0.000000
vt 0.625000 0.250000
vt 0.375000 0.500000
vt 0.625000 0.500000
vt 0.375000 0.750000
vt 0.625000 0.750000
vt 0.375000 1.000000
vt 0.125000 0.750000
vt 0.125000 0.500000
vt 0.875000 0.500000
vt 0.625000 1.000000
vt 0.875000 0.750000
vn -1.0000 0.0000 0.0000
vn 0.0000 1.0000 0.0000
vn 1.0000 0.0000 0.0000
vn 0.0000 -1.0000 0.0000
vn 0.0000 0.0000 -1.0000
vn 0.0000 0.0000 1.0000
usemtl None
s off
f 2/1/1 3/2/1 1/3/1
f 4/4/2 7/5/2 3/2/2
f 8/6/3 5/7/3 7/5/3
f 6/8/4 1/9/4 5/7/4
f 7/5/5 1/10/5 3/11/5
f 4/12/6 6/8/6 8/6/6
f 2/1/1 4/4/1 3/2/1
f 4/4/2 8/6/2 7/5/2
f 8/6/3 6/8/3 5/7/3
f 6/8/4 2/13/4 1/9/4
f 7/5/5 5/7/5 1/10/5
f 4/12/6 2/14/6 6/8/6
o Wall3_Cube.004
v 3.000001 1.740000 0.000000
v 3.000001 1.740000 2.500000
v -3.000000 1.740000 0.000000
v -3.000000 1.740000 2.500000
v 3.000001 1.760000 0.000000
v 3.000001 1.760000 2.500000
v -3.000000 1.760000 0.000000
v -3.000000 1.760000 2.500000
vt 0.625000 0.000000
vt 0.375000 0.250000
vt 0.375000 0.000000
vt 0.625000 0.250000
vt 0.375000 0.500000
vt 0.625000 0.500000
vt 0.375000 0.750000
vt 0.625000 0.750000
vt 0.375000 1.000000
vt 0.125000 0.500000
vt 0.125000 0.750000
vt 0.875000 0.500000
vt 0.625000 1.000000
vt 0.875000 0.750000
vn 0.0000 -1.0000 0.0000
vn -1.0000 0.0000 0.0000
vn -0.0000 1.0000 0.0000
vn 1.0000 0.0000 0.0000
vn 0.0000 0.0000 -1.0000
vn 0.0000 0.0000 1.0000
usemtl None
s off
f 10/15/7 11/16/7 9/17/7
f 12/18/8 15/19/8 11/16/8
f 16/20/9 13/21/9 15/19/9
f 14/22/10 9/23/10 13/21/10
f 11/24/11 13/21/11 9/25/11
f 12/26/12 14/22/12 16/20/12
f 10/15/7 12/18/7 11/16/7
f 12/18/8 16/20/8 15/19/8
f 16/20/9 14/22/9 13/21/9
f 14/22/10 10/27/10 9/23/10
f 11/24/11 15/19/11 13/21/11
f 12/26/12 10/28/12 14/22/12
o Wall4_Cube.005
v 3.000000 -1.760000 0.000000
v 3.000000 -1.760000 2.500000
v -3.000000 -1.760000 0.000000
v -3.000000 -1.760000 2.500000
v 3.000000 -1.740000 0.000000
v 3.000000 -1.740000 2.500000
v -3.000000 -1.740000 0.000000
v -3.000000 -1.740000 2.500000
vt 0.625000 0.000000
vt 0.375000 0.250000
vt 0.375000 0.000000
vt 0.625000 0.250000
vt 0.375000 0.500000
vt 0.625000 0.500000
vt 0.375000 0.750000
vt 0.625000 0.750000
vt 0.375000 1.000000
vt 0.125000 0.500000
vt 0.125000 0.750000
vt 0.875000 0.500000
vt 0.625000 1.000000
vt 0.875000 0.750000
vn 0.0000 -1.0000 0.0000
vn -1.0000 0.0000 0.0000
vn -0.0000 1.0000 0.0000
vn 1.0000 0.0000 0.0000
vn 0.0000 0.0000 -1.0000
vn 0.0000 0.0000 1.0000
usemtl None
s off
f 18/29/13 19/30/13 17/31/13
f 20/32/14 23/33/14 19/30/14
f 24/34/15 21/35/15 23/33/15
f 22/36/16 17/37/16 21/35/16
f 19/38/17 21/35/17 17/39/17
f 20/40/18 22/36/18 24/34/18
f 18/29/13 20/32/13 19/30/13
f 20/32/14 24/34/14 23/33/14
f 24/34/15 22/36/15 21/35/15
f 22/36/16 18/41/16 17/37/16
f 19/38/17 23/33/17 21/35/17
f 20/40/18 18/42/18 22/36/18
o Wall_L.002_Cube.009
v 0.150000 0.049999 0.000000
v 0.150000 0.049999 2.525000
v -0.050000 0.049999 0.000000
v -0.050000 0.049999 2.525000
v 0.150000 -1.750000 0.000000
v 0.150000 -1.750000 2.525000
v -0.050000 -1.750000 0.000000
v -0.050000 -1.750000 2.525000
vt -1.637343 -3.774685
vt 2.637343 -8.049371
vt -1.637343 -8.049371
vt -1.637343 0.500000
vt 2.637343 -3.774685
vt -1.637343 4.774685
vt 2.637343 0.500000
vt -1.637343 9.049371
vt 2.637343 4.774685
vt -5.912028 4.774685
vt -5.912028 0.500000
vt 6.912028 4.774685
vt 6.912028 0.500000
vt 2.637343 9.049371
vn 0.0000 1.0000 0.0000
vn -1.0000 -0.0000 0.0000
vn 0.0000 -1.0000 0.0000
vn 1.0000 0.0000 0.0000
vn 0.0000 0.0000 1.0000
usemtl Wall.004
s off
f 27/43/19 26/44/19 25/45/19
f 31/46/20 28/47/20 27/43/20
f 29/48/21 32/49/21 31/46/21
f 25/50/22 30/51/22 29/48/22
f 31/46/23 25/52/23 27/53/23
f 32/49/23 26/54/23 28/55/23
f 27/43/19 28/47/19 26/44/19
f 31/46/20 32/49/20 28/47/20
f 29/48/21 30/51/21 32/49/21
f 25/50/22 26/56/22 30/51/22
f 31/46/23 29/48/23 25/52/23
f 32/49/23 30/51/23 26/54/23
o Wall_B.001_Cube.008
v 0.150000 0.050000 0.000000
v 0.150000 0.050000 0.650000
v -0.050000 0.050000 0.000000
v -0.050000 0.050000 0.650000
v 0.150000 1.150000 0.000000
v 0.150000 1.150000 0.650000
v -0.050000 1.150000 0.000000
v -0.050000 1.150000 0.650000
vt 2.637343 -8.049371
vt -1.637343 -3.774685
vt -1.637343 -8.049371
vt 2.637343 -3.774685
vt -1.637343 0.500000
vt 2.637343 0.500000
vt -1.637343 4.774685
vt 2.637343 4.774685
vt -1.637343 9.049371
vt -5.912028 4.774685
vt -5.912028 0.500000
vt 6.912028 0.500000
vt 2.637343 9.049371
vt 6.912028 4.774685
vn 0.0000 -1.0000 0.0000
vn -1.0000 -0.0000 0.0000
vn 0.0000 1.0000 0.0000
vn 1.0000 0.0000 0.0000
vn 0.0000 0.0000 -1.0000
vn 0.0000 0.0000 1.0000
usemtl Wall.003
s off
f 34/57/24 35/58/24 33/59/24
f 36/60/25 39/61/25 35/58/25
f 40/62/26 37/63/26 39/61/26
f 38/64/27 33/65/27 37/63/27
f 39/61/28 33/66/28 35/67/28
f 36/68/29 38/64/29 40/62/29
f 34/57/24 36/60/24 35/58/24
f 36/60/25 40/62/25 39/61/25
f 40/62/26 38/64/26 37/63/26
f 38/64/27 34/69/27 33/65/27
f 39/61/28 37/63/28 33/66/28
f 36/68/29 34/70/29 38/64/29
o Wall2_Cube.003
v -3.010000 -1.750000 0.000000
v -3.010000 -1.750000 2.500000
v -3.010000 1.750000 0.000000
v -3.010000 1.750000 2.500000
v -2.990000 -1.750000 0.000000
v -2.990000 -1.750000 2.500000
v -2.990000 1.750000 0.000000
v -2.990000 1.750000 2.500000
vt 0.625000 0.000000
vt 0.375000 0.250000
vt 0.375000 0.000000
vt 0.625000 0.250000
vt 0.375000 0.500000
vt 0.625000 0.500000
vt 0.375000 0.750000
vt 0.625000 0.750000
vt 0.375000 1.000000
vt 0.125000 0.750000
vt 0.125000 0.500000
vt 0.875000 0.500000
vt 0.625000 1.000000
vt 0.875000 0.750000
vn -1.0000 0.0000 0.0000
vn 0.0000 1.0000 0.0000
vn 1.0000 0.0000 0.0000
vn 0.0000 -1.0000 0.0000
vn 0.0000 0.0000 -1.0000
vn 0.0000 0.0000 1.0000
usemtl None
s off
f 42/71/30 43/72/30 41/73/30
f 44/74/31 47/75/31 43/72/31
f 48/76/32 45/77/32 47/75/32
f 46/78/33 41/79/33 45/77/33
f 47/75/34 41/80/34 43/81/34
f 44/82/35 46/78/35 48/76/35
f 42/71/30 44/74/30 43/72/30
f 44/74/31 48/76/31 47/75/31
f 48/76/32 46/78/32 45/77/32
f 46/78/33 42/83/33 41/79/33
f 47/75/34 45/77/34 41/80/34
f 44/82/35 42/84/35 46/78/35
o Wall1_Cube.002
v 2.990000 -1.750000 0.000000
v 2.990000 -1.750000 2.500000
v 2.990000 1.750000 0.000000
v 2.990000 1.750000 2.500000
v 3.010000 -1.750000 0.000000
v 3.010000 -1.750000 2.500000
v 3.010000 1.750000 0.000000
v 3.010000 1.750000 2.500000
vt 0.625000 0.000000
vt 0.375000 0.250000
vt 0.375000 0.000000
vt 0.625000 0.250000
vt 0.375000 0.500000
vt 0.625000 0.500000
vt 0.375000 0.750000
vt 0.625000 0.750000
vt 0.375000 1.000000
vt 0.125000 0.750000
vt 0.125000 0.500000
vt 0.875000 0.500000
vt 0.625000 1.000000
vt 0.875000 0.750000
vn -1.0000 0.0000 0.0000
vn 0.0000 1.0000 0.0000
vn 1.0000 0.0000 0.0000
vn 0.0000 -1.0000 0.0000
vn 0.0000 0.0000 -1.0000
vn 0.0000 0.0000 1.0000
usemtl None
s off
f 50/85/36 51/86/36 49/87/36
f 52/88/37 55/89/37 51/86/37
f 56/90/38 53/91/38 55/89/38
f 54/92/39 49/93/39 53/91/39
f 55/89/40 49/94/40 51/95/40
f 52/96/41 54/92/41 56/90/41
f 50/85/36 52/88/36 51/86/36
f 52/88/37 56/90/37 55/89/37
f 56/90/38 54/92/38 53/91/38
f 54/92/39 50/97/39 49/93/39
f 55/89/40 53/91/40 49/94/40
f 52/96/41 50/98/41 54/92/41
